<svg width="18" height="16" viewBox="0 0 18 16" fill="none" xmlns="http://www.w3.org/2000/svg">
<path fill-rule="evenodd" clip-rule="evenodd" d="M7 12.5C7 12.7761 7.22386 13 7.5 13L15.5 13C15.7761 13 16 12.7761 16 12.5L16 3.5C16 3.22386 15.7761 3 15.5 3L7.5 3C7.22386 3 7 3.22386 7 3.5L7 5.5C7 5.77614 6.77614 6 6.5 6C6.22386 6 6 5.77614 6 5.5L6 3.5C6 2.67157 6.67157 2 7.5 2L15.5 2C16.3284 2 17 2.67157 17 3.5L17 12.5C17 13.3284 16.3284 14 15.5 14L7.5 14C6.67157 14 6 13.3284 6 12.5L6 10.5C6 10.2239 6.22386 10 6.5 10C6.77614 10 7 10.2239 7 10.5L7 12.5Z" fill="#4C34C2" stroke="#4C34C2" stroke-width="0.5" stroke-linecap="round"/>
<path fill-rule="evenodd" clip-rule="evenodd" d="M1.14645 8.35355C0.951184 8.15829 0.951184 7.84171 1.14645 7.64645L4.14645 4.64645C4.34171 4.45118 4.65829 4.45118 4.85355 4.64645C5.04882 4.84171 5.04882 5.15829 4.85355 5.35355L2.70711 7.5L11.5 7.5C11.7761 7.5 12 7.72386 12 8C12 8.27614 11.7761 8.5 11.5 8.5L2.70711 8.5L4.85355 10.6464C5.04882 10.8417 5.04882 11.1583 4.85355 11.3536C4.65829 11.5488 4.34171 11.5488 4.14645 11.3536L1.14645 8.35355Z" fill="#4C34C2" stroke="#4C34C2" stroke-width="0.5" stroke-linecap="round" stroke-linejoin="round"/>
</svg>
