<svg width="24" height="24" viewBox="0 0 24 24" fill="none" xmlns="http://www.w3.org/2000/svg">
<path fill-rule="evenodd" clip-rule="evenodd" d="M5.25 9C5.05109 9 4.86032 9.07902 4.71967 9.21967C4.57902 9.36032 4.5 9.55109 4.5 9.75V21.75C4.5 21.9489 4.57902 22.1397 4.71967 22.2803C4.86032 22.421 5.05109 22.5 5.25 22.5H18.75C18.9489 22.5 19.1397 22.421 19.2803 22.2803C19.421 22.1397 19.5 21.9489 19.5 21.75V9.75C19.5 9.55109 19.421 9.36032 19.2803 9.21967C19.1397 9.07902 18.9489 9 18.75 9H15.75C15.5511 9 15.3603 8.92098 15.2197 8.78033C15.079 8.63968 15 8.44891 15 8.25C15 8.05109 15.079 7.86032 15.2197 7.71967C15.3603 7.57902 15.5511 7.5 15.75 7.5H18.75C19.3467 7.5 19.919 7.73705 20.341 8.15901C20.7629 8.58097 21 9.15326 21 9.75V21.75C21 22.3467 20.7629 22.919 20.341 23.341C19.919 23.7629 19.3467 24 18.75 24H5.25C4.65326 24 4.08097 23.7629 3.65901 23.341C3.23705 22.919 3 22.3467 3 21.75V9.75C3 9.15326 3.23705 8.58097 3.65901 8.15901C4.08097 7.73705 4.65326 7.5 5.25 7.5H8.25C8.44891 7.5 8.63968 7.57902 8.78033 7.71967C8.92098 7.86032 9 8.05109 9 8.25C9 8.44891 8.92098 8.63968 8.78033 8.78033C8.63968 8.92098 8.44891 9 8.25 9H5.25Z" fill="#4C34C2"/>
<path fill-rule="evenodd" clip-rule="evenodd" d="M11.4692 17.781C11.5389 17.8508 11.6216 17.9063 11.7128 17.9441C11.8039 17.9819 11.9016 18.0013 12.0002 18.0013C12.0989 18.0013 12.1965 17.9819 12.2877 17.9441C12.3788 17.9063 12.4615 17.8508 12.5312 17.781L17.0312 13.281C17.172 13.1402 17.2512 12.9492 17.2512 12.75C17.2512 12.5508 17.172 12.3598 17.0312 12.219C16.8904 12.0782 16.6994 11.9991 16.5002 11.9991C16.3011 11.9991 16.11 12.0782 15.9692 12.219L12.7502 15.4395V2.25C12.7502 2.05109 12.6712 1.86032 12.5305 1.71967C12.3899 1.57902 12.1991 1.5 12.0002 1.5C11.8013 1.5 11.6105 1.57902 11.4699 1.71967C11.3292 1.86032 11.2502 2.05109 11.2502 2.25V15.4395L8.03122 12.219C7.89039 12.0782 7.69938 11.9991 7.50022 11.9991C7.30105 11.9991 7.11005 12.0782 6.96922 12.219C6.82839 12.3598 6.74927 12.5508 6.74927 12.75C6.74927 12.9492 6.82839 13.1402 6.96922 13.281L11.4692 17.781Z" fill="#4C34C2"/>
</svg>
