<svg width="16" height="12" viewBox="0 0 16 12" fill="none" xmlns="http://www.w3.org/2000/svg">
<path d="M0 2C0 0.895431 0.895431 0 2 0H14C15.1046 0 16 0.895431 16 2V10C16 11.1046 15.1046 12 14 12H2C0.895431 12 0 11.1046 0 10V2ZM2 1C1.44772 1 1 1.44772 1 2V2.2169L8 6.4169L15 2.2169V2C15 1.44772 14.5523 1 14 1H2ZM15 3.3831L10.2422 6.23779L15 9.11355V3.3831ZM14.9655 10.2612L9.27203 6.81988L8 7.5831L6.72797 6.81988L1.03446 10.2612C1.14931 10.6868 1.53808 11 2 11H14C14.4619 11 14.8507 10.6868 14.9655 10.2612ZM1 9.11355L5.75782 6.23779L1 3.3831V9.11355Z" fill="#4C34C2"/>
</svg>
