<svg width="194" height="179" viewBox="0 0 194 179" fill="none" xmlns="http://www.w3.org/2000/svg">
<g filter="url(#filter0_d_1315_1268)">
<path fill-rule="evenodd" clip-rule="evenodd" d="M92.7156 22.5535C92.46 22.7069 92.2513 22.9274 92.1121 23.1912L15.475 153.716C15.2841 154.022 15.181 154.375 15.1771 154.736C15.1732 155.097 15.2685 155.453 15.4527 155.763C15.6315 156.099 15.8662 156.322 16.0562 156.434C16.2238 156.546 16.4362 156.624 16.7938 156.624H170.057C170.316 156.634 170.572 156.568 170.794 156.434C171.053 156.266 171.264 156.035 171.409 155.763C171.592 155.452 171.685 155.096 171.679 154.735C171.673 154.374 171.568 154.021 171.376 153.716L94.7497 23.1912C94.6105 22.9274 94.4018 22.7069 94.1462 22.5535C93.9271 22.4332 93.6807 22.3716 93.4309 22.3745C93.1811 22.3716 92.9347 22.4332 92.7156 22.5535V22.5535ZM104.384 17.5191C103.277 15.59 101.682 13.9872 99.7591 12.8726C97.836 11.758 95.6531 11.1711 93.4309 11.1711C91.2087 11.1711 89.0258 11.758 87.1027 12.8726C85.1796 13.9872 83.5843 15.59 82.478 17.5191L5.84091 148.044C0.73326 156.748 6.85796 167.812 16.7938 167.812H170.057C179.993 167.812 186.129 156.736 181.01 148.044L104.384 17.5191Z" fill="#4C34C2"/>
<path d="M82.2571 134.251C82.2571 132.782 82.5462 131.327 83.1078 129.97C83.6695 128.613 84.4928 127.379 85.5306 126.34C86.5684 125.302 87.8005 124.478 89.1565 123.915C90.5125 123.353 91.9658 123.064 93.4336 123.064C94.9013 123.064 96.3546 123.353 97.7106 123.915C99.0666 124.478 100.299 125.302 101.337 126.34C102.374 127.379 103.198 128.613 103.759 129.97C104.321 131.327 104.61 132.782 104.61 134.251C104.61 137.218 103.433 140.064 101.337 142.162C99.2405 144.26 96.3977 145.439 93.4336 145.439C90.4694 145.439 87.6266 144.26 85.5306 142.162C83.4346 140.064 82.2571 137.218 82.2571 134.251V134.251ZM83.3524 67.0703C83.2035 65.6589 83.3528 64.232 83.7905 62.882C84.2282 61.5321 84.9445 60.2894 85.893 59.2344C86.8415 58.1795 88.0009 57.336 89.2961 56.7586C90.5913 56.1812 91.9934 55.8828 93.4112 55.8828C94.829 55.8828 96.2311 56.1812 97.5263 56.7586C98.8215 57.336 99.9809 58.1795 100.929 59.2344C101.878 60.2894 102.594 61.5321 103.032 62.882C103.47 64.232 103.619 65.6589 103.47 67.0703L99.5583 106.305C99.4268 107.846 98.7223 109.282 97.584 110.328C96.4457 111.375 94.9566 111.955 93.4112 111.955C91.8658 111.955 90.3767 111.375 89.2384 110.328C88.1001 109.282 87.3956 107.846 87.2641 106.305L83.3524 67.0703Z" fill="#4C34C2"/>
</g>
<defs>
<filter id="filter0_d_1315_1268" x="0" y="0" width="198" height="187" filterUnits="userSpaceOnUse" color-interpolation-filters="sRGB">
<feFlood flood-opacity="0" result="BackgroundImageFix"/>
<feColorMatrix in="SourceAlpha" type="matrix" values="0 0 0 0 0 0 0 0 0 0 0 0 0 0 0 0 0 0 127 0" result="hardAlpha"/>
<feOffset dy="4"/>
<feGaussianBlur stdDeviation="2"/>
<feComposite in2="hardAlpha" operator="out"/>
<feColorMatrix type="matrix" values="0 0 0 0 0 0 0 0 0 0 0 0 0 0 0 0 0 0 0.25 0"/>
<feBlend mode="normal" in2="BackgroundImageFix" result="effect1_dropShadow_1315_1268"/>
<feBlend mode="normal" in="SourceGraphic" in2="effect1_dropShadow_1315_1268" result="shape"/>
</filter>
</defs>
</svg>
