<svg width="110" height="110" viewBox="0 0 110 110" fill="none" xmlns="http://www.w3.org/2000/svg">
<path d="M73.6106 11.2475C74.8995 12.5367 75.6236 14.2851 75.6236 16.1081C75.6236 17.9311 74.8995 19.6795 73.6106 20.9687L39.5794 55L73.6106 89.0313C74.863 90.3279 75.5559 92.0645 75.5403 93.8671C75.5246 95.6697 74.8016 97.3941 73.5269 98.6688C72.2522 99.9434 70.5279 100.666 68.7253 100.682C66.9227 100.698 65.186 100.005 63.8894 98.7525L24.9975 59.8606C23.7087 58.5714 22.9846 56.823 22.9846 55C22.9846 53.177 23.7087 51.4286 24.9975 50.1394L63.8894 11.2475C65.1787 9.95863 66.927 9.23459 68.75 9.23459C70.573 9.23459 72.3214 9.95863 73.6106 11.2475V11.2475Z" fill="#4C34C2"/>
</svg>
