<svg width="16" height="16" viewBox="0 0 16 16" fill="none" xmlns="http://www.w3.org/2000/svg">
<mask id="path-1-inside-1_166_4424" fill="white">
<path d="M12.1658 8.93977C11.6418 10.0015 10.9325 11.0601 10.2058 12.01C9.48132 12.957 8.75442 13.7768 8.20768 14.3605C8.13503 14.438 8.06566 14.5113 8 14.5801C7.93434 14.5113 7.86497 14.438 7.79232 14.3605C7.24558 13.7768 6.51868 12.957 5.79425 12.01C5.06754 11.0601 4.35825 10.0015 3.83423 8.93977C3.3048 7.86708 3 6.86191 3 6C3 3.23858 5.23858 1 8 1C10.7614 1 13 3.23858 13 6C13 6.86191 12.6952 7.86708 12.1658 8.93977ZM8 16C8 16 14 10.3137 14 6C14 2.68629 11.3137 0 8 0C4.68629 0 2 2.68629 2 6C2 10.3137 8 16 8 16Z"/>
<path d="M8 8C6.89543 8 6 7.10457 6 6C6 4.89543 6.89543 4 8 4C9.10457 4 10 4.89543 10 6C10 7.10457 9.10457 8 8 8ZM8 9C9.65685 9 11 7.65685 11 6C11 4.34315 9.65685 3 8 3C6.34315 3 5 4.34315 5 6C5 7.65685 6.34315 9 8 9Z"/>
</mask>
<path d="M12.1658 8.93977C11.6418 10.0015 10.9325 11.0601 10.2058 12.01C9.48132 12.957 8.75442 13.7768 8.20768 14.3605C8.13503 14.438 8.06566 14.5113 8 14.5801C7.93434 14.5113 7.86497 14.438 7.79232 14.3605C7.24558 13.7768 6.51868 12.957 5.79425 12.01C5.06754 11.0601 4.35825 10.0015 3.83423 8.93977C3.3048 7.86708 3 6.86191 3 6C3 3.23858 5.23858 1 8 1C10.7614 1 13 3.23858 13 6C13 6.86191 12.6952 7.86708 12.1658 8.93977ZM8 16C8 16 14 10.3137 14 6C14 2.68629 11.3137 0 8 0C4.68629 0 2 2.68629 2 6C2 10.3137 8 16 8 16Z" fill="#212529"/>
<path d="M8 8C6.89543 8 6 7.10457 6 6C6 4.89543 6.89543 4 8 4C9.10457 4 10 4.89543 10 6C10 7.10457 9.10457 8 8 8ZM8 9C9.65685 9 11 7.65685 11 6C11 4.34315 9.65685 3 8 3C6.34315 3 5 4.34315 5 6C5 7.65685 6.34315 9 8 9Z" fill="#212529"/>
<path d="M12.1658 8.93977L11.269 8.49719L11.269 8.49719L12.1658 8.93977ZM3.83423 8.93977L2.9375 9.38235L3.83423 8.93977ZM5.79425 12.01L6.58849 11.4024L6.58849 11.4024L5.79425 12.01ZM7.79232 14.3605L7.0625 15.0441L7.0625 15.0441L7.79232 14.3605ZM8 14.5801L7.27679 15.2707L8 16.028L8.72321 15.2707L8 14.5801ZM8.20768 14.3605L8.9375 15.0441L8.9375 15.0441L8.20768 14.3605ZM10.2058 12.01L9.41151 11.4024L9.41151 11.4024L10.2058 12.01ZM8 16L7.31212 16.7258L8 17.3777L8.68788 16.7258L8 16ZM12 6C12 6.64534 11.7654 7.49144 11.269 8.49719L13.0625 9.38235C13.625 8.24271 14 7.07848 14 6H12ZM8 2C10.2091 2 12 3.79086 12 6H14C14 2.68629 11.3137 0 8 0V2ZM4 6C4 3.79086 5.79086 2 8 2V0C4.68629 0 2 2.68629 2 6H4ZM4.73096 8.49719C4.23457 7.49144 4 6.64534 4 6H2C2 7.07848 2.37504 8.24271 2.9375 9.38235L4.73096 8.49719ZM6.58849 11.4024C5.88507 10.4829 5.21649 9.48094 4.73096 8.49719L2.9375 9.38235C3.50001 10.5221 4.25001 11.6373 5 12.6176L6.58849 11.4024ZM8.52213 13.6768C7.99115 13.11 7.28736 12.316 6.58849 11.4024L5 12.6176C5.75 13.598 6.5 14.4436 7.0625 15.0441L8.52213 13.6768ZM8.72321 13.8894C8.65969 13.8229 8.59252 13.752 8.52213 13.6768L7.0625 15.0441C7.13742 15.1241 7.209 15.1997 7.27679 15.2707L8.72321 13.8894ZM7.47787 13.6768C7.40748 13.752 7.34031 13.8229 7.27679 13.8894L8.72321 15.2707C8.791 15.1997 8.86258 15.1241 8.9375 15.0441L7.47787 13.6768ZM9.41151 11.4024C8.71264 12.316 8.00885 13.11 7.47787 13.6768L8.9375 15.0441C9.5 14.4436 10.25 13.598 11 12.6176L9.41151 11.4024ZM11.269 8.49719C10.7835 9.48094 10.1149 10.4829 9.41151 11.4024L11 12.6176C11.75 11.6373 12.5 10.5221 13.0625 9.38235L11.269 8.49719ZM13 6C13 6.86191 12.6952 7.86708 12.1658 8.93977C11.6418 10.0015 10.9325 11.0601 10.2058 12.01C9.48132 12.957 8.75442 13.7768 8.20768 14.3605C7.93486 14.6517 7.70825 14.8827 7.55104 15.0398C7.47246 15.1183 7.41131 15.1782 7.3705 15.2179C7.3501 15.2377 7.33479 15.2525 7.32494 15.2619C7.32001 15.2666 7.31645 15.27 7.3143 15.2721C7.31322 15.2731 7.3125 15.2738 7.31214 15.2742C7.31195 15.2743 7.31186 15.2744 7.31186 15.2744C7.31186 15.2744 7.31192 15.2744 7.31192 15.2744C7.31201 15.2743 7.31212 15.2742 8 16C8.68788 16.7258 8.68803 16.7257 8.68821 16.7255C8.68831 16.7254 8.68851 16.7252 8.68869 16.7251C8.68905 16.7247 8.68951 16.7243 8.69005 16.7238C8.69114 16.7227 8.69259 16.7213 8.6944 16.7196C8.69802 16.7162 8.70306 16.7114 8.70949 16.7052C8.72234 16.6929 8.74072 16.6752 8.76426 16.6523C8.81134 16.6065 8.8791 16.5401 8.96459 16.4547C9.1355 16.2839 9.37764 16.037 9.66732 15.7278C10.2456 15.1104 11.0187 14.239 11.7942 13.2252C12.5675 12.2144 13.3582 11.0426 13.9592 9.82493C14.5548 8.61821 15 7.29495 15 6H13ZM8 1C10.7614 1 13 3.23858 13 6H15C15 2.13401 11.866 -1 8 -1V1ZM3 6C3 3.23858 5.23858 1 8 1V-1C4.13401 -1 1 2.13401 1 6H3ZM8 16C8.68788 15.2742 8.68799 15.2743 8.68808 15.2744C8.68808 15.2744 8.68814 15.2744 8.68814 15.2744C8.68814 15.2744 8.68805 15.2743 8.68786 15.2742C8.6875 15.2738 8.68678 15.2731 8.6857 15.2721C8.68355 15.27 8.67999 15.2666 8.67506 15.2619C8.66521 15.2525 8.6499 15.2377 8.6295 15.2179C8.58869 15.1782 8.52754 15.1183 8.44896 15.0398C8.29175 14.8827 8.06514 14.6517 7.79232 14.3605C7.24558 13.7768 6.51868 12.957 5.79425 12.01C5.06754 11.0601 4.35825 10.0015 3.83423 8.93977C3.3048 7.86708 3 6.86191 3 6H1C1 7.29495 1.4452 8.61821 2.04077 9.82493C2.64175 11.0426 3.43246 12.2144 4.20575 13.2252C4.98132 14.239 5.75442 15.1104 6.33268 15.7278C6.62236 16.037 6.8645 16.2839 7.03541 16.4547C7.1209 16.5401 7.18866 16.6065 7.23574 16.6523C7.25928 16.6752 7.27766 16.6929 7.29051 16.7052C7.29694 16.7114 7.30198 16.7162 7.3056 16.7196C7.30741 16.7213 7.30886 16.7227 7.30995 16.7238C7.31049 16.7243 7.31095 16.7247 7.31131 16.7251C7.31149 16.7252 7.31169 16.7254 7.31179 16.7255C7.31197 16.7257 7.31212 16.7258 8 16ZM9 6C9 6.55228 8.55228 7 8 7V9C9.65685 9 11 7.65685 11 6H9ZM8 5C8.55228 5 9 5.44772 9 6H11C11 4.34315 9.65685 3 8 3V5ZM7 6C7 5.44772 7.44772 5 8 5V3C6.34315 3 5 4.34315 5 6H7ZM8 7C7.44772 7 7 6.55228 7 6H5C5 7.65685 6.34315 9 8 9V7ZM10 6C10 7.10457 9.10457 8 8 8V10C10.2091 10 12 8.20914 12 6H10ZM8 4C9.10457 4 10 4.89543 10 6H12C12 3.79086 10.2091 2 8 2V4ZM6 6C6 4.89543 6.89543 4 8 4V2C5.79086 2 4 3.79086 4 6H6ZM8 8C6.89543 8 6 7.10457 6 6H4C4 8.20914 5.79086 10 8 10V8Z" fill="#4C34C2" mask="url(#path-1-inside-1_166_4424)"/>
</svg>
