<svg width="12" height="17" viewBox="0 0 12 17" fill="none" xmlns="http://www.w3.org/2000/svg">
<mask id="path-1-inside-1_411_4611" fill="white">
<path d="M9.69984 6.20486V3.82255C9.69984 1.96537 8.18894 0.454468 6.33176 0.454468C4.47458 0.454468 2.96367 1.96537 2.96367 3.82255V6.20486H0.663513V16.3913H12V6.20486H9.69984ZM3.94945 3.82255C3.94945 2.50893 5.01814 1.44025 6.33176 1.44025C7.64538 1.44025 8.71406 2.50893 8.71406 3.82255V6.20486H3.94945V3.82255ZM11.0142 15.4055H1.64929V7.19064H11.0142V15.4055Z"/>
</mask>
<path d="M9.69984 6.20486V3.82255C9.69984 1.96537 8.18894 0.454468 6.33176 0.454468C4.47458 0.454468 2.96367 1.96537 2.96367 3.82255V6.20486H0.663513V16.3913H12V6.20486H9.69984ZM3.94945 3.82255C3.94945 2.50893 5.01814 1.44025 6.33176 1.44025C7.64538 1.44025 8.71406 2.50893 8.71406 3.82255V6.20486H3.94945V3.82255ZM11.0142 15.4055H1.64929V7.19064H11.0142V15.4055Z" fill="#4C34C2"/>
<path d="M9.69984 6.20486H8.69984V7.20486H9.69984V6.20486ZM2.96367 6.20486V7.20486H3.96367V6.20486H2.96367ZM0.663513 6.20486V5.20486H-0.336487V6.20486H0.663513ZM0.663513 16.3913H-0.336487V17.3913H0.663513V16.3913ZM12 16.3913V17.3913H13V16.3913H12ZM12 6.20486H13V5.20486H12V6.20486ZM8.71406 6.20486V7.20486H9.71406V6.20486H8.71406ZM3.94945 6.20486H2.94945V7.20486H3.94945V6.20486ZM11.0142 15.4055V16.4055H12.0142V15.4055H11.0142ZM1.64929 15.4055H0.649295V16.4055H1.64929V15.4055ZM1.64929 7.19064V6.19064H0.649295V7.19064H1.64929ZM11.0142 7.19064H12.0142V6.19064H11.0142V7.19064ZM10.6998 6.20486V3.82255H8.69984V6.20486H10.6998ZM10.6998 3.82255C10.6998 1.41309 8.74122 -0.545532 6.33176 -0.545532V1.45447C7.63665 1.45447 8.69984 2.51766 8.69984 3.82255H10.6998ZM6.33176 -0.545532C3.92229 -0.545532 1.96367 1.41309 1.96367 3.82255H3.96367C3.96367 2.51766 5.02686 1.45447 6.33176 1.45447V-0.545532ZM1.96367 3.82255V6.20486H3.96367V3.82255H1.96367ZM2.96367 5.20486H0.663513V7.20486H2.96367V5.20486ZM-0.336487 6.20486V16.3913H1.66351V6.20486H-0.336487ZM0.663513 17.3913H12V15.3913H0.663513V17.3913ZM13 16.3913V6.20486H11V16.3913H13ZM12 5.20486H9.69984V7.20486H12V5.20486ZM4.94945 3.82255C4.94945 3.06122 5.57042 2.44025 6.33176 2.44025V0.440249C4.46585 0.440249 2.94945 1.95665 2.94945 3.82255H4.94945ZM6.33176 2.44025C7.09309 2.44025 7.71406 3.06122 7.71406 3.82255H9.71406C9.71406 1.95665 8.19766 0.440249 6.33176 0.440249V2.44025ZM7.71406 3.82255V6.20486H9.71406V3.82255H7.71406ZM8.71406 5.20486H3.94945V7.20486H8.71406V5.20486ZM4.94945 6.20486V3.82255H2.94945V6.20486H4.94945ZM11.0142 14.4055H1.64929V16.4055H11.0142V14.4055ZM2.64929 15.4055V7.19064H0.649295V15.4055H2.64929ZM1.64929 8.19064H11.0142V6.19064H1.64929V8.19064ZM10.0142 7.19064V15.4055H12.0142V7.19064H10.0142Z" fill="#4C34C2" mask="url(#path-1-inside-1_411_4611)"/>
</svg>
