<svg width="110" height="110" viewBox="0 0 110 110" fill="none" xmlns="http://www.w3.org/2000/svg">
<path d="M36.3894 11.2475C35.1005 12.5367 34.3764 14.2851 34.3764 16.1081C34.3764 17.9311 35.1005 19.6795 36.3894 20.9687L70.4206 55L36.3894 89.0313C35.137 90.3279 34.4441 92.0645 34.4597 93.8671C34.4754 95.6697 35.1984 97.3941 36.4731 98.6688C37.7478 99.9434 39.4721 100.666 41.2747 100.682C43.0773 100.698 44.814 100.005 46.1106 98.7525L85.0025 59.8606C86.2913 58.5714 87.0154 56.823 87.0154 55C87.0154 53.177 86.2913 51.4286 85.0025 50.1394L46.1106 11.2475C44.8213 9.95863 43.073 9.23459 41.25 9.23459C39.427 9.23459 37.6786 9.95863 36.3894 11.2475V11.2475Z" fill="#4C34C2"/>
</svg>
