<svg width="16" height="16" viewBox="0 0 16 16" fill="none" xmlns="http://www.w3.org/2000/svg">
<path d="M2.5 1C1.94772 1 1.5 1.44772 1.5 2V3C1.5 3.55228 1.94772 4 2.5 4H3V13C3 14.1046 3.89543 15 5 15H11C12.1046 15 13 14.1046 13 13V4H13.5C14.0523 4 14.5 3.55228 14.5 3V2C14.5 1.44772 14.0523 1 13.5 1H10C10 0.447715 9.55229 0 9 0H7C6.44772 0 6 0.447715 6 1H2.5ZM5.5 5C5.77614 5 6 5.22386 6 5.5V12.5C6 12.7761 5.77614 13 5.5 13C5.22386 13 5 12.7761 5 12.5L5 5.5C5 5.22386 5.22386 5 5.5 5ZM8 5C8.27614 5 8.5 5.22386 8.5 5.5V12.5C8.5 12.7761 8.27614 13 8 13C7.72386 13 7.5 12.7761 7.5 12.5V5.5C7.5 5.22386 7.72386 5 8 5ZM11 5.5V12.5C11 12.7761 10.7761 13 10.5 13C10.2239 13 10 12.7761 10 12.5V5.5C10 5.22386 10.2239 5 10.5 5C10.7761 5 11 5.22386 11 5.5Z" fill="#CC0000"/>
</svg>
