<svg width="9" height="15" viewBox="0 0 9 15" fill="none" xmlns="http://www.w3.org/2000/svg">
<path d="M1.16211 14.9663C1.48584 14.9663 1.75146 14.8501 1.96729 14.6343L8.33398 8.41699C8.61621 8.13477 8.75732 7.84424 8.75732 7.4873C8.75732 7.13037 8.62451 6.83154 8.33398 6.55762L1.96729 0.332031C1.74316 0.116211 1.47754 0 1.16211 0C0.522949 0 0 0.514648 0 1.15381C0 1.46924 0.132812 1.76807 0.365234 2.00049L6.00977 7.4873L0.365234 12.9658C0.132812 13.1982 0 13.4971 0 13.8125C0 14.4517 0.522949 14.9663 1.16211 14.9663Z" fill="white"/>
</svg>
