<svg width="22" height="15" viewBox="0 0 22 15" fill="none" xmlns="http://www.w3.org/2000/svg">
<path d="M2 10.0797L2.5 10.1635L7.07 4.69111C6.89 3.91276 7.06 3.02664 7.59 2.40396C8.37 1.45797 9.63 1.45797 10.41 2.40396C10.94 3.02664 11.11 3.91276 10.93 4.69111L13.5 7.76857L14 7.68475C14.18 7.68475 14.35 7.68475 14.5 7.76857L18.07 3.49365C18 3.31403 18 3.11046 18 2.89492C18 2.25975 18.2107 1.65059 18.5858 1.20146C18.9609 0.752321 19.4696 0.5 20 0.5C20.5304 0.5 21.0391 0.752321 21.4142 1.20146C21.7893 1.65059 22 2.25975 22 2.89492C22 3.53009 21.7893 4.13925 21.4142 4.58838C21.0391 5.03751 20.5304 5.28984 20 5.28984C19.82 5.28984 19.65 5.28984 19.5 5.20601L15.93 9.48094C16 9.66056 16 9.86413 16 10.0797C16 10.7148 15.7893 11.324 15.4142 11.7731C15.0391 12.2223 14.5304 12.4746 14 12.4746C13.4696 12.4746 12.9609 12.2223 12.5858 11.7731C12.2107 11.324 12 10.7148 12 10.0797L12.07 9.48094L9.5 6.40347C9.18 6.48729 8.82 6.48729 8.5 6.40347L3.93 11.8759L4 12.4746C4 13.1098 3.78929 13.7189 3.41421 14.1681C3.03914 14.6172 2.53043 14.8695 2 14.8695C1.46957 14.8695 0.960859 14.6172 0.585786 14.1681C0.210714 13.7189 0 13.1098 0 12.4746C0 11.8394 0.210714 11.2303 0.585786 10.7811C0.960859 10.332 1.46957 10.0797 2 10.0797V10.0797Z" fill="black"/>
</svg>
