<svg width="24" height="17" viewBox="0 0 24 17" fill="none" xmlns="http://www.w3.org/2000/svg">
<path d="M22 13.5H18V6.5H22M23 4.5H17C16.7348 4.5 16.4804 4.60536 16.2929 4.79289C16.1054 4.98043 16 5.23478 16 5.5V15.5C16 15.7652 16.1054 16.0196 16.2929 16.2071C16.4804 16.3946 16.7348 16.5 17 16.5H23C23.2652 16.5 23.5196 16.3946 23.7071 16.2071C23.8946 16.0196 24 15.7652 24 15.5V5.5C24 5.23478 23.8946 4.98043 23.7071 4.79289C23.5196 4.60536 23.2652 4.5 23 4.5ZM4 2.5H22V0.5H4C3.46957 0.5 2.96086 0.710714 2.58579 1.08579C2.21071 1.46086 2 1.96957 2 2.5V13.5H0V16.5H14V13.5H4V2.5Z" fill="black"/>
</svg>
