<svg width="21" height="21" viewBox="0 0 21 21" fill="none" xmlns="http://www.w3.org/2000/svg">
<path d="M15.9422 0.192211C16.1985 -0.0640704 16.614 -0.0640704 16.8703 0.192211L20.8078 4.12971C21.0641 4.38599 21.0641 4.8015 20.8078 5.05778L7.6828 18.1828C7.61996 18.2456 7.545 18.295 7.46249 18.328L0.899993 20.953C0.656251 21.0505 0.377859 20.9934 0.19223 20.8078C0.00660172 20.6221 -0.0505406 20.3437 0.0469563 20.1L2.67195 13.5375C2.70496 13.455 2.75438 13.38 2.81723 13.3172L15.9422 0.192211ZM14.7093 3.28125L17.7188 6.29067L19.4157 4.59375L16.4063 1.58433L14.7093 3.28125ZM16.7907 7.21874L13.7813 4.20932L5.25001 12.7406V13.125H5.90626C6.2687 13.125 6.56251 13.4188 6.56251 13.7812V14.4375H7.21876C7.5812 14.4375 7.87501 14.7313 7.87501 15.0937V15.75H8.25943L16.7907 7.21874ZM3.97906 14.0115L3.84055 14.15L1.83427 19.1657L6.84997 17.1594L6.98848 17.0209C6.73964 16.9277 6.56251 16.6876 6.56251 16.4062V15.75H5.90626C5.54383 15.75 5.25001 15.4562 5.25001 15.0937V14.4375H4.59376C4.31236 14.4375 4.07232 14.2604 3.97906 14.0115Z" fill="black"/>
</svg>
