<svg xmlns="http://www.w3.org/2000/svg" fill="none" viewBox="4 0 16 16">
<g filter="url(#filter0_d_15_1362)">
<path d="M7.5 0C7.77614 0 8 0.223858 8 0.5V1H16V0.5C16 0.223858 16.2239 0 16.5 0C16.7761 0 17 0.223858 17 0.5V1H18C19.1046 1 20 1.89543 20 3V14C20 15.1046 19.1046 16 18 16H6C4.89543 16 4 15.1046 4 14V3C4 1.89543 4.89543 1 6 1H7V0.5C7 0.223858 7.22386 0 7.5 0ZM5 4V14C5 14.5523 5.44772 15 6 15H18C18.5523 15 19 14.5523 19 14V4H5Z" fill="white"/>
</g>
<defs>
<filter id="filter0_d_15_1362" x="0" y="0" width="24" height="24" filterUnits="userSpaceOnUse" color-interpolation-filters="sRGB">
<feFlood flood-opacity="0" result="BackgroundImageFix"/>
<feColorMatrix in="SourceAlpha" type="matrix" values="0 0 0 0 0 0 0 0 0 0 0 0 0 0 0 0 0 0 127 0" result="hardAlpha"/>
<feOffset dy="4"/>
<feGaussianBlur stdDeviation="2"/>
<feComposite in2="hardAlpha" operator="out"/>
<feColorMatrix type="matrix" values="0 0 0 0 0 0 0 0 0 0 0 0 0 0 0 0 0 0 0.25 0"/>
<feBlend mode="normal" in2="BackgroundImageFix" result="effect1_dropShadow_15_1362"/>
<feBlend mode="normal" in="SourceGraphic" in2="effect1_dropShadow_15_1362" result="shape"/>
</filter>
</defs>
</svg>